<svg width="60" height="52" viewBox="0 0 60 52" fill="none" xmlns="http://www.w3.org/2000/svg">
<path d="M9.57065 14.8901L8.79083 20.8901L0.37152 24.5223L8.79083 28.4709L5.27637 32.806L13.3474 32.806L12.8474 39.8901L21.3474 38.1105L19.3474 47.3901L27.8474 43.3901L35.341 51.2712L37.864 40.4735L52.3706 44.1397L48.2265 34.0805L53.4607 34.4565L50.091 28.2083L59.4302 25.7975L47.0324 23.0258L50.9877 12.1617L43.4137 11.7787L44.6584 5.45486L37.0673 9.30262L35.3869 4.34186L29.9596 10.5323L20.4116 3.69628L18.3476 13.3901L9.57065 14.8901Z" fill="#101010"/>
<path d="M42.7076 20.5599C42.3826 20.2885 41.1326 20.2992 39.8933 20.3063C38.6541 20.3135 37.3683 20.3063 37.0755 20.4349C36.7826 20.5635 36.2005 21.9992 35.4148 23.5063C34.5219 25.2063 33.4219 26.842 32.7255 26.8313C31.8255 26.8313 32.0326 24.0206 32.0862 21.9706C32.1219 20.6099 31.9005 20.1849 31.7041 20.0492C31.1356 19.7676 30.5363 19.5531 29.9183 19.4099C29.9183 19.4099 25.9898 19.1135 25.4398 20.817C26.1862 20.917 27.4719 20.6777 26.9755 25.9385C26.9541 26.192 26.3755 28.3599 24.5469 25.4278C24.0933 24.7135 22.3362 20.3242 21.7326 20.3063C19.7005 20.2492 17.7076 20.167 16.9969 20.5599C16.3469 20.917 17.8755 23.9492 20.4505 27.9849C22.5576 31.2849 24.7898 33.8635 28.6398 34.5135C29.3541 34.5849 31.2541 34.6706 31.8541 34.3849C32.2612 34.1849 31.7648 31.3242 33.1326 31.0563C33.7469 30.9385 36.0826 34.0277 36.9719 34.3849C37.5076 34.5992 38.6969 34.6777 39.9148 34.642C41.229 34.5992 42.7112 34.7563 42.854 33.8742C43.1755 31.8992 38.8898 29.3313 38.7612 28.1099C38.6683 27.2385 40.3291 25.6099 41.1933 24.3992C42.2219 22.9099 43.3612 21.1135 42.7076 20.5599Z" fill="white"/>
</svg>
