<svg width="57" height="52" viewBox="0 0 57 52" fill="none" xmlns="http://www.w3.org/2000/svg">
<path d="M47.8474 7.39014L37.3474 10.1292L34.3474 0.890138L29.8474 8.89014L23.3093 6.07818L19.8217 14.001L11.8678 10.1292L12.9938 15.3374L3.75851 20.9503L10.3474 26.8901L5.10719 38.6509L15.8908 37.6996L13.8861 42.4094L20.8352 41.0863L20.1615 50.3667L26.6821 39.7463L35.6701 46.4776L38.4192 39.6166L43.9844 42.5614L42.7531 34.4809L47.9565 34.3461L43.8359 27.5902L53.2869 20.7488L41.9135 15.1073L47.8474 7.39014Z" fill="#101010"/>
<path d="M15.9711 25.5189C15.9711 25.5189 25.9771 21.408 29.437 19.9613C30.7752 19.3826 35.2839 17.5502 35.2839 17.5502C35.2839 17.5502 37.3574 16.7425 37.1887 18.7558C37.1284 19.5635 36.599 22.8429 36.2001 25.4586C35.6589 29.0074 34.7535 34.5364 34.7535 34.5364C34.7535 34.5364 34.645 35.8625 33.6564 36.0915C32.6679 36.3206 31.0645 35.2838 30.7752 35.0548C30.4858 34.8257 26.4352 32.282 24.9283 31.0041C24.7771 30.8998 24.6546 30.7592 24.5719 30.5952C24.4892 30.4311 24.449 30.249 24.455 30.0654C24.461 29.8819 24.513 29.7027 24.6062 29.5445C24.6995 29.3862 24.8309 29.2539 24.9886 29.1596C27.0741 27.2549 29.5576 24.88 31.0163 23.373C31.7034 22.6859 32.4027 21.0704 29.5093 23.0355C25.4105 25.8685 21.3599 28.5207 21.3599 28.5207C20.9405 28.6991 20.4895 28.791 20.0338 28.791C19.5781 28.791 19.1271 28.6991 18.7077 28.5207C16.9717 28.0023 14.9464 27.3151 14.9464 27.3151C14.9464 27.3151 13.56 26.4471 15.9229 25.5309L15.9711 25.5189Z" fill="white"/>
</svg>
