<svg width="293" height="219" viewBox="0 0 293 219" fill="none" xmlns="http://www.w3.org/2000/svg">
<path d="M269.152 137.803L238.808 154.412L266.755 180.809L222.057 170.237L217.602 191.075L180.614 160.332L166.393 179.171L132.608 158.732L103.185 186.916L97.234 167.04L41.1277 165.305L55.2786 122L9.11625 102.423L62.4664 85.3496L42.7082 73.0708L78.6289 64.4893L55.2786 34.1218L120 48.5L137.478 18.1615L165.446 36.3713L185.521 15.8474L197.206 45.7137L222.246 36.37L217.315 67.1642L277.114 72.6805L235.271 113.34L269.152 137.803Z" fill="#083400"/>
<path d="M103.297 83.5715C103.993 84.0065 104.602 83.9195 105.21 83.7455C106.08 83.5715 106.95 83.3976 107.82 83.0496C110.256 82.0058 111.908 80.1791 112.604 77.6565C112.691 77.0476 112.691 76.5257 112.517 75.9168C112.169 74.786 111.386 74.1771 110.169 74.1771C109.299 74.0901 108.516 74.2641 107.733 74.3511C107.298 74.438 106.776 74.612 106.341 74.786C106.08 74.786 105.819 74.699 105.471 74.699C105.645 74.3511 105.732 74.0901 105.906 73.9161C106.428 73.3942 106.95 72.9593 107.472 72.5244C108.516 71.5675 109.473 70.5237 110.169 69.3059C110.517 68.697 110.865 68.0011 111.125 67.3922C111.647 65.5655 110.865 64.5217 108.864 64.6087C108.342 64.6087 107.82 64.6087 107.298 64.7826C106.254 65.0436 105.297 65.3915 104.341 65.8265C103.471 66.1744 102.601 66.6093 102.079 67.3922C102.079 67.4792 101.818 67.4792 101.731 67.4792C101.644 67.3922 101.557 67.2182 101.644 67.0443C101.731 66.5223 102.253 66.2614 102.688 65.9134C104.428 64.8696 106.341 64.1737 108.429 63.9128C108.864 63.9128 109.386 63.9128 109.908 64.0867C111.386 64.3477 112.082 65.2176 111.908 66.6093C111.821 67.3052 111.647 67.9141 111.386 68.523C110.691 70.0018 109.647 71.2196 108.516 72.3504C108.168 72.7853 107.733 73.1333 107.385 73.3942C107.472 73.8291 107.733 73.6552 107.907 73.6552C108.342 73.5682 108.864 73.4812 109.386 73.4812C111.995 73.3072 113.822 75.1339 113.213 77.6565C112.691 80.0051 111.299 81.8318 109.125 83.0496C107.82 83.9195 106.254 84.2674 104.602 84.5284C104.341 84.5284 103.906 84.5284 103.645 84.4414C103.297 84.3544 103.123 84.1804 103.297 83.5715ZM126.036 78.0914C125.601 79.2223 125.166 80.1791 124.731 81.1359C124.383 81.8318 123.948 82.5277 123.426 83.2236C123.166 83.5715 122.731 83.9195 122.383 84.1804C121.339 84.7893 120.208 84.6154 119.512 83.6585C119.251 83.2236 119.077 82.7887 118.903 82.2668C118.207 79.3962 118.642 76.6127 120.295 74.0901C120.817 73.3072 121.513 72.6983 122.47 72.2634C123.861 71.6545 125.253 71.5675 126.558 72.5244C126.732 72.6113 126.819 72.6983 127.08 72.7853C127.167 72.5244 127.341 72.3504 127.428 72.1764C127.602 71.7415 127.776 71.2196 128.037 70.7846C128.211 70.5237 128.385 70.2627 128.733 70.3497C129.081 70.3497 129.168 70.6977 129.168 70.9586C129.255 71.3935 129.255 71.7415 129.255 72.1764C129.342 74.96 129.342 77.7435 129.428 80.527C129.428 81.6579 129.602 82.7887 129.689 84.0065C129.515 84.1804 129.342 84.1804 129.168 83.9195C128.994 83.6585 128.907 83.3106 128.907 83.0496C128.82 82.1798 128.733 81.3969 128.733 80.527C128.646 78.1784 128.646 75.8298 128.646 73.4812C128.646 72.9593 128.559 72.4374 128.559 71.8285C127.776 72.7853 127.515 73.3072 127.689 74.1771C127.863 74.786 127.95 75.4819 127.776 76.1778C127.515 77.1346 127.254 78.0914 126.036 78.0914ZM126.732 73.8291C125.775 72.5244 124.992 72.2634 123.6 72.5244C122.296 72.7853 121.426 73.5682 120.73 74.612C119.338 76.8736 118.903 79.3092 119.512 81.9188C119.599 82.3537 119.773 82.7887 120.034 83.1366C120.556 83.9195 121.339 84.0935 122.122 83.5715C122.47 83.3106 122.731 83.0496 122.992 82.7017C123.426 82.0928 123.861 81.3969 124.209 80.701C125.253 78.4394 125.949 76.0908 126.732 73.8291ZM127.08 75.3949C126.645 76.1778 126.471 76.6997 126.384 77.4825C126.906 76.7867 127.167 76.2647 127.08 75.3949ZM145.468 85.4852C145.207 85.0503 144.946 84.9633 144.859 84.7893C144.772 84.0935 144.772 83.4846 144.772 82.8757C144.946 81.1359 145.033 79.3962 145.294 77.6565C145.642 75.4819 146.077 73.3072 146.425 71.0456C146.512 70.8716 146.425 70.6977 146.425 70.3497C146.077 70.6977 145.816 70.8716 145.642 71.0456C144.946 71.9155 144.337 72.7853 143.641 73.5682C143.032 74.3511 142.423 75.1339 141.727 75.8298C141.293 76.2647 140.771 76.6127 140.162 76.8736C139.118 77.3956 138.074 77.2216 137.291 76.4387C136.421 75.6558 136.073 74.786 135.812 73.8291C135.377 72.1764 135.638 70.6107 136.073 68.9579L136.16 68.871C136.334 68.784 136.421 68.697 136.595 68.697C136.682 68.697 136.769 68.784 136.856 68.871C136.943 69.3059 136.943 69.7408 136.769 70.1757C135.899 71.9155 136.247 73.6552 137.291 75.3079C138.161 76.6997 139.292 76.8736 140.684 75.8298C141.466 75.1339 142.162 74.3511 142.771 73.5682L145.294 70.4367C145.555 70.0018 145.99 69.6538 146.425 69.3929C146.773 69.1319 147.295 69.3059 147.295 69.7408C147.295 70.1757 147.295 70.6977 147.208 71.1326C146.338 74.438 145.99 77.8305 145.642 81.2229C145.555 82.2668 145.555 83.3976 145.555 84.5284C145.555 84.7893 145.555 84.9633 145.468 85.4852ZM154.534 81.2229C155.143 83.3976 156.535 84.2674 158.622 83.7455C158.97 83.7455 159.318 83.6585 159.666 83.4846C161.406 82.6147 163.146 81.7448 164.363 80.0921C164.711 80.1791 164.798 80.4401 164.624 80.701C164.45 80.962 164.189 81.3099 163.929 81.5709C162.711 82.6147 161.319 83.4846 159.84 84.0935C159.231 84.3544 158.622 84.4414 158.013 84.5284C156.274 84.7024 155.056 83.9195 154.186 82.4407C153.838 81.8318 153.49 81.3099 153.142 80.788C153.229 80.0921 153.316 79.4832 153.229 78.8743C153.229 76.9606 153.577 75.1339 154.447 73.4812C155.143 72.3504 155.926 71.3066 157.144 70.6977C157.579 70.3497 158.1 70.1757 158.622 70.0018C160.101 69.7408 161.319 70.5237 161.406 72.0024C161.493 72.6113 161.493 73.3072 161.319 73.9161C161.058 74.612 160.797 75.2209 160.362 75.9168C159.231 77.9175 157.492 79.4832 155.491 80.614C155.143 80.875 154.795 81.049 154.534 81.2229ZM154.186 80.3531H154.534C157.231 79.0483 159.231 76.9606 160.449 74.2641C160.797 73.6552 160.884 72.9593 160.797 72.2634C160.71 70.8716 159.666 70.2627 158.361 70.7846C157.579 71.0456 156.883 71.4805 156.361 72.0894C154.186 74.438 153.577 77.2216 154.186 80.3531ZM179.632 82.7017C180.067 82.0058 180.415 81.5709 180.763 81.049C182.764 77.6565 185.199 74.438 187.548 71.2196C187.809 70.8716 188.07 70.6107 188.418 70.3497C188.679 70.0888 189.201 70.2627 189.201 70.6107C189.288 71.0456 189.288 71.5675 189.201 72.0024C188.94 74.2641 188.505 76.5257 188.157 78.7873C187.809 81.6579 187.635 82.7887 187.461 84.0065C187.374 84.2674 187.287 84.4414 186.852 84.4414C186.591 83.2236 187.113 82.0058 187.374 78.9613C187.461 77.7435 187.722 76.6127 187.983 75.3949C188.157 74.1771 188.331 72.9593 188.505 71.3935C188.157 71.7415 187.983 71.8285 187.896 72.0024C185.634 75.1339 183.286 78.1784 181.372 81.4839C181.111 81.8318 180.937 82.1798 180.676 82.4407C179.893 83.3976 179.197 83.4846 178.327 82.6147C177.805 82.0058 177.284 81.3969 176.849 80.701C175.283 78.3524 173.717 76.0038 172.238 73.5682L171.629 72.8723C171.195 73.4812 171.108 73.6552 170.934 75.0469L170.673 77.4825C170.586 78.2654 170.586 79.0483 170.499 79.7442C170.499 80.614 170.412 81.3969 170.412 82.2668C170.325 82.9626 170.499 83.7455 170.499 84.4414C170.412 84.5284 170.325 84.5284 170.151 84.5284C170.064 84.4414 169.803 84.2674 169.803 84.1804C169.716 83.7455 169.629 83.3976 169.629 82.9626C169.629 79.6572 169.89 76.3517 170.586 73.0463C170.673 72.5244 170.673 71.8285 171.368 71.7415C172.064 71.7415 172.238 72.3504 172.499 72.6983C174.152 75.3079 175.805 77.8305 177.457 80.3531C177.979 81.1359 178.501 81.9188 179.632 82.7017ZM116.264 104.091C116.264 103.743 116.177 103.569 116.264 103.308C116.351 102.786 116.525 102.177 116.612 101.568C116.699 100.263 116.177 99.3066 114.959 98.6977C114.176 98.2627 113.48 98.3497 112.784 98.7846L111.914 99.5675C109.653 102.525 108.783 105.657 110.001 109.223C110.175 109.745 110.436 110.18 110.697 110.615C111.654 111.919 113.132 112.267 114.524 111.311C115.133 110.963 115.655 110.441 116.09 109.919C116.699 109.136 117.308 108.266 117.916 107.396C118.003 107.222 118.177 107.048 118.264 106.961C118.351 106.874 118.525 106.961 118.525 106.961C118.612 107.048 118.699 107.135 118.699 107.222C118.699 107.396 118.612 107.483 118.525 107.657C117.743 108.701 117.047 109.745 116.264 110.702C115.742 111.311 115.133 111.746 114.524 112.093C112.871 112.963 111.48 112.354 110.61 111.485C110.175 111.05 109.827 110.441 109.566 109.832C108.783 108.005 108.609 106.091 109.044 104.091C109.305 102.612 109.914 101.133 110.784 99.9155C111.219 99.3935 111.74 98.7846 112.262 98.4367C113.306 97.5668 114.437 97.5668 115.655 98.2627C116.699 98.9586 117.221 99.9155 117.308 101.133C117.308 102.09 117.134 102.96 116.699 103.83C116.612 103.917 116.438 104.004 116.264 104.091ZM130.527 105.83L131.049 102.699C131.397 101.133 131.832 99.5675 132.789 98.1757C133.137 97.6538 133.572 97.2189 134.007 96.784C134.268 96.523 134.703 96.523 135.051 96.784C135.312 97.1319 135.66 97.2189 136.094 97.1319C138.008 96.871 139.139 97.6538 140.009 99.0456C140.966 100.611 141.314 102.351 141.488 104.004C141.749 105.83 141.488 107.657 140.879 109.31C140.705 109.919 140.357 110.528 140.096 111.05C139.487 112.093 138.617 112.789 137.486 113.398C135.573 114.442 134.094 114.268 132.876 112.702C132.267 111.919 131.745 111.137 131.484 110.354C131.049 109.484 130.962 108.44 130.701 107.57C130.614 107.222 130.614 106.874 130.527 106.439C128.527 106.613 126.613 107.135 124.612 107.483C124.438 108.527 124.525 109.484 124.612 110.441C124.612 111.398 124.786 112.354 124.873 113.485C124.525 113.224 124.264 113.05 124.177 112.876C124.09 112.354 123.916 111.746 123.916 111.224C123.829 107.483 123.742 103.743 123.655 100.002V97.7408C123.655 97.4799 123.742 97.2189 124.177 97.3059C124.525 98.2627 124.351 99.3935 124.438 100.437V103.482C124.438 104.526 124.525 105.57 124.525 106.7C126.613 106.613 128.44 105.83 130.527 105.83ZM131.397 106.091V107.135C131.571 108.962 132.093 110.702 133.311 112.18C134.529 113.572 135.486 113.746 137.225 112.789C138.095 112.267 138.878 111.659 139.4 110.789C139.748 110.267 140.009 109.658 140.183 109.049C141.053 106.265 141.053 103.482 140.009 100.785C139.748 100.002 139.226 99.3066 138.791 98.6107C138.53 98.2627 138.008 97.9148 137.573 97.8278C136.181 97.3929 134.529 97.9148 133.746 99.0456C133.485 99.3935 133.311 99.8285 132.963 100.002C132.441 100.35 132.354 100.785 132.18 101.22C131.745 102.873 131.397 104.439 131.397 106.091ZM160.758 108.962C161.541 109.223 162.237 108.962 162.759 108.962C163.194 108.962 163.542 108.962 163.89 109.049C164.238 109.049 164.412 109.31 164.412 109.571C164.412 109.919 164.412 110.354 164.325 110.615C163.89 112.093 163.281 113.659 162.846 115.138C162.759 115.399 162.585 115.573 162.411 115.66C162.063 115.66 161.976 115.573 162.063 115.312C162.585 113.833 163.107 112.267 163.542 110.876C163.716 110.441 163.89 110.093 163.629 109.571C162.672 109.484 161.715 109.571 160.932 109.832C160.497 110.354 161.019 111.224 159.975 111.572C159.975 110.963 159.975 110.441 159.975 110.006H159.019C156.322 110.441 153.712 110.876 151.103 111.398C150.233 111.485 149.45 111.832 148.667 112.093C147.971 112.267 147.797 112.441 148.058 112.963C148.145 113.311 148.145 113.659 148.145 113.92C148.232 114.442 148.493 114.877 148.754 115.399C148.841 115.66 149.102 115.921 149.189 116.182C148.841 116.443 148.667 116.356 148.493 116.182C147.449 114.964 147.102 113.659 147.449 112.006C147.971 111.746 148.58 111.398 149.363 111.137C149.972 109.397 150.668 107.657 151.364 105.83C152.321 103.308 153.625 100.785 155.452 98.6107C156.061 98.0888 156.496 97.4799 157.105 97.0449C157.366 96.697 157.714 96.436 158.062 96.349C158.845 95.8271 159.54 96.0011 159.888 96.784C160.062 97.2189 160.323 97.6538 160.323 98.1757C160.497 99.4805 160.671 100.785 160.671 102.09C160.758 104.004 160.671 106.004 160.671 107.831C160.671 108.266 160.758 108.614 160.758 108.962ZM159.888 109.223C159.975 109.049 160.062 108.875 160.062 108.701C159.975 105.917 160.062 103.047 159.888 100.176C159.888 99.1326 159.627 98.1757 159.367 97.2189C159.28 96.9579 159.106 96.697 158.758 96.61C158.062 96.871 157.54 97.3929 157.105 97.9148C155.104 99.9155 153.712 102.09 152.669 104.526L150.32 110.267C150.233 110.354 150.233 110.528 150.233 110.876C153.538 110.354 156.67 109.745 159.888 109.223ZM177.616 106.091C177.181 107.222 176.746 108.179 176.311 109.136C175.963 109.832 175.528 110.528 175.006 111.224C174.745 111.572 174.31 111.919 173.962 112.18C172.919 112.789 171.788 112.615 171.092 111.659C170.831 111.224 170.657 110.789 170.483 110.267C169.787 107.396 170.222 104.613 171.875 102.09C172.397 101.307 173.093 100.698 174.049 100.263C175.441 99.6545 176.833 99.5675 178.138 100.524C178.312 100.611 178.399 100.698 178.66 100.785C178.747 100.524 178.921 100.35 179.008 100.176C179.182 99.7415 179.356 99.2196 179.617 98.7846C179.79 98.5237 179.964 98.2627 180.312 98.3497C180.66 98.3497 180.747 98.6977 180.747 98.9586C180.834 99.3935 180.834 99.7415 180.834 100.176C180.921 102.96 180.921 105.743 181.008 108.527C181.008 109.658 181.182 110.789 181.269 112.006C181.095 112.18 180.921 112.18 180.747 111.919C180.573 111.659 180.486 111.311 180.486 111.05C180.399 110.18 180.312 109.397 180.312 108.527C180.225 106.178 180.225 103.83 180.225 101.481C180.225 100.959 180.138 100.437 180.138 99.8285C179.356 100.785 179.095 101.307 179.269 102.177C179.443 102.786 179.53 103.482 179.356 104.178C179.095 105.135 178.834 106.091 177.616 106.091ZM178.312 101.829C177.355 100.524 176.572 100.263 175.18 100.524C173.875 100.785 173.006 101.568 172.31 102.612C170.918 104.874 170.483 107.309 171.092 109.919C171.179 110.354 171.353 110.789 171.614 111.137C172.136 111.919 172.919 112.093 173.701 111.572C174.049 111.311 174.31 111.05 174.571 110.702C175.006 110.093 175.441 109.397 175.789 108.701C176.833 106.439 177.529 104.091 178.312 101.829ZM178.66 103.395C178.225 104.178 178.051 104.7 177.964 105.483C178.486 104.787 178.747 104.265 178.66 103.395ZM92.6611 127.046C89.8775 127.22 87.094 127.481 84.3974 128.089C83.6145 128.35 83.2666 128.698 83.2666 129.394C83.2666 129.568 83.1796 129.829 83.1796 130.09V139.398C83.1796 139.832 83.3536 140.354 83.3536 140.789C83.3536 140.876 83.1796 140.963 83.1796 140.963C83.0056 140.963 82.7447 140.963 82.7447 140.876C82.5707 140.702 82.5707 140.441 82.5707 140.18C82.3967 136.44 82.3098 132.787 82.5707 129.046C82.5707 128.524 82.5707 128.089 82.9187 127.741C86.3981 127.046 89.7035 126.437 93.096 126.437C93.6179 126.872 93.6179 127.307 93.5309 127.741C93.5309 128.437 93.4439 129.22 93.4439 129.916C93.183 133.048 93.009 136.179 92.835 139.311C92.835 139.398 92.748 139.485 92.6611 139.572C92.1391 139.746 92.1391 139.398 92.1391 139.137C92.1391 137.832 92.1391 136.527 92.2261 135.222L92.748 128.524C92.748 128.089 92.922 127.568 92.6611 127.046ZM100.611 138.006C100.176 138.528 100.263 139.137 100.263 139.659C100.263 140.789 100.437 142.007 100.437 143.138V144.965C100.35 145.052 100.089 145.139 100.002 145.226C99.9149 145.226 99.7409 145.052 99.6539 144.965C99.306 143.486 99.3929 142.007 99.4799 140.528V138.006C99.306 134.178 99.3929 130.264 99.9149 126.437C100.002 126.176 100.002 125.915 100.089 125.741C100.176 125.567 100.35 125.48 100.437 125.48L100.785 125.828C100.785 126.002 100.785 126.176 100.698 126.263C100.089 129.133 100.089 132.091 100.089 134.961L100.176 135.048C100.524 135.048 100.524 134.7 100.611 134.526C101.046 133.309 101.568 132.004 102.176 130.873C102.524 130.09 103.133 129.394 103.655 128.611L104.177 128.089C106.091 126.524 108.005 127.046 108.787 129.307C109.222 130.612 109.222 131.917 109.135 133.222C108.961 134.874 108.526 136.353 107.657 137.745C107.222 138.528 106.613 139.224 105.917 139.746C104.264 140.963 102.524 140.702 101.307 139.05L100.611 138.006ZM108.526 132.352C108.526 130.699 108.352 129.742 107.918 128.959C107.309 127.828 106.352 127.481 105.221 128.176C104.438 128.698 103.916 129.307 103.394 130.003C102.263 131.656 101.568 133.483 101.046 135.396C100.959 135.57 100.872 135.744 100.959 135.831C101.481 136.353 101.133 137.049 101.394 137.658C101.568 138.267 101.916 138.789 102.35 139.224C102.959 139.746 103.655 140.006 104.351 139.746C104.786 139.572 105.308 139.311 105.656 139.05C106.439 138.528 106.961 137.745 107.309 136.962C108.178 135.396 108.439 133.743 108.526 132.352ZM116.422 124.784L116.509 125.393C116.248 127.22 115.987 128.959 115.813 130.699C115.552 132.613 115.639 134.613 115.987 136.527C116.161 137.658 116.422 138.789 117.118 139.746C118.161 141.224 119.205 141.311 120.423 139.919C121.032 139.224 121.467 138.441 121.728 137.658C122.25 136.005 122.685 134.439 123.207 132.874C123.729 131.308 124.163 129.829 124.772 128.35C125.033 127.654 125.468 126.959 125.903 126.263C126.077 126.002 126.338 125.741 126.686 125.567C127.034 125.306 127.643 125.48 127.73 126.002C127.817 126.524 127.817 127.133 127.817 127.741C127.73 128.698 127.556 129.655 127.469 130.699L126.773 137.832C126.773 138.702 126.686 139.572 126.686 140.441C126.251 140.615 126.164 140.354 126.164 140.093C126.164 139.137 126.077 138.18 126.164 137.223L127.121 127.828C127.208 127.307 127.208 126.872 127.034 126.263C126.773 126.35 126.599 126.437 126.512 126.611C125.99 127.481 125.468 128.35 125.033 129.307C124.511 130.873 124.076 132.526 123.555 134.091C123.207 135.396 122.772 136.701 122.337 137.919C122.076 138.615 121.728 139.224 121.293 139.919C121.032 140.267 120.684 140.615 120.249 140.963C119.292 141.746 118.248 141.746 117.292 140.876C116.422 140.18 115.987 139.224 115.639 138.267C115.291 136.962 115.03 135.57 115.03 134.178C114.943 131.83 115.117 129.568 115.465 127.307L115.726 125.828C115.813 125.48 115.987 125.132 116.074 124.784H116.422ZM147.906 138.441C148.776 138.267 149.211 137.832 149.646 137.397C150.167 136.701 150.689 136.005 151.124 135.222C152.342 133.309 153.473 131.395 154.604 129.481C155.039 128.698 155.474 128.002 155.995 127.307C156.256 126.959 156.691 126.698 157.213 127.046C157.474 127.481 157.387 128.089 157.387 128.611C157.213 130.351 157.126 132.178 156.865 133.917C156.691 136.092 156.517 138.267 156.604 140.441C156.604 140.528 156.604 140.615 156.517 140.789C156.256 140.615 155.995 140.528 155.995 140.354C155.908 139.659 155.822 139.05 155.908 138.354C156.082 135.396 156.343 132.352 156.604 129.394V128.263C156.169 128.089 156.082 128.35 155.995 128.524C155.387 129.481 154.865 130.438 154.343 131.395L151.733 135.657C151.385 136.266 150.95 136.875 150.515 137.397C150.167 137.832 149.819 138.18 149.472 138.528C148.254 139.398 147.297 139.224 146.688 138.006C146.079 136.701 145.731 135.396 145.731 134.004C145.731 132.613 145.818 131.134 145.905 129.655C145.905 129.394 146.079 129.046 145.557 128.698C145.296 128.959 145.035 129.22 144.861 129.568C143.991 130.96 143.122 132.439 142.339 133.83L140.338 137.223C139.99 137.832 139.468 138.441 138.859 138.963C138.337 139.572 137.468 140.006 136.598 140.18C135.641 140.441 134.945 140.18 134.51 139.398C134.249 138.615 133.988 137.919 133.901 137.136C133.466 133.83 133.553 130.525 134.249 127.307C134.336 126.785 134.597 126.263 134.771 125.741C134.858 125.567 135.119 125.48 135.293 125.567C135.467 125.654 135.554 125.828 135.467 125.915C134.249 129.133 134.336 132.526 134.51 135.831C134.51 136.701 134.771 137.571 134.945 138.441C134.945 138.615 135.119 138.876 135.206 139.137C135.467 139.572 135.902 139.746 136.424 139.572C137.468 139.311 138.337 138.789 138.859 138.006C139.468 137.223 139.99 136.44 140.512 135.657L143.035 131.047C143.557 130.177 144.165 129.307 144.774 128.437C145.296 127.828 145.818 127.568 146.166 127.741C146.688 128.002 146.688 128.524 146.688 128.959C146.688 129.481 146.601 130.09 146.601 130.699C146.427 132.439 146.34 134.265 146.775 136.005C146.949 136.875 147.123 137.745 147.906 138.441ZM164.6 137.223C165.209 139.398 166.601 140.267 168.689 139.746C169.037 139.746 169.384 139.659 169.732 139.485C171.472 138.615 173.212 137.745 174.43 136.092C174.778 136.179 174.865 136.44 174.691 136.701C174.517 136.962 174.256 137.31 173.995 137.571C172.777 138.615 171.385 139.485 169.906 140.093C169.297 140.354 168.689 140.441 168.08 140.528C166.34 140.702 165.122 139.919 164.252 138.441C163.904 137.832 163.556 137.31 163.208 136.788C163.295 136.092 163.382 135.483 163.295 134.874C163.295 132.961 163.643 131.134 164.513 129.481C165.209 128.35 165.992 127.307 167.21 126.698C167.645 126.35 168.167 126.176 168.689 126.002C170.167 125.741 171.385 126.524 171.472 128.002C171.559 128.611 171.559 129.307 171.385 129.916C171.124 130.612 170.863 131.221 170.428 131.917C169.297 133.917 167.558 135.483 165.557 136.614C165.209 136.875 164.861 137.049 164.6 137.223ZM164.252 136.353H164.6C167.297 135.048 169.297 132.961 170.515 130.264C170.863 129.655 170.95 128.959 170.863 128.263C170.776 126.872 169.732 126.263 168.428 126.785C167.645 127.046 166.949 127.481 166.427 128.089C164.252 130.438 163.643 133.222 164.252 136.353ZM186.132 125.915C185.523 126.176 185.523 126.611 185.349 126.959C184.479 129.133 183.609 131.395 182.826 133.657C181.957 135.831 181.174 138.006 180.391 140.18L180.13 140.528C179.869 140.615 179.695 140.441 179.695 140.267C179.695 139.919 179.782 139.572 179.956 139.224C181.435 135.222 183 131.221 184.479 127.133C184.74 126.524 185.001 126.002 185.349 125.393C185.61 124.871 186.393 124.871 186.654 125.393C186.915 125.915 187.089 126.437 187.263 126.872C188.046 129.394 188.742 132.004 189.524 134.439C190.829 137.658 191.351 138.702 191.786 139.832C191.786 140.963 191.438 140.702 191.003 139.919C190.742 139.311 190.394 138.702 190.22 138.093C189.35 135.483 187.698 130.786 186.915 128.176L186.132 125.915ZM197.387 124.871C196.778 124.871 196.691 124.61 196.691 124.262C196.691 123.827 196.865 123.479 197.039 123.131C197.3 122.696 197.648 122.348 197.996 122C199.301 120.696 200.867 119.826 202.519 119.13C203.215 118.869 203.911 118.782 204.694 118.869C205.825 118.956 206.521 119.565 206.521 120.696C206.521 121.218 206.434 121.826 206.173 122.348C205.738 123.392 205.129 124.349 204.52 125.306C203.998 126.176 203.389 127.046 202.867 128.002C202.171 129.307 201.388 130.699 201.127 132.265C201.127 132.352 200.953 132.439 200.953 132.439C200.78 132.352 200.606 132.265 200.606 132.178C200.432 131.482 200.693 130.96 200.953 130.351C201.649 128.611 202.519 127.046 203.563 125.48L205.39 122.435C205.564 122 205.738 121.565 205.825 121.044C205.912 120.087 205.303 119.478 204.259 119.565C203.737 119.565 203.302 119.652 202.78 119.826C201.214 120.435 199.736 121.305 198.518 122.435C197.648 123.305 197.561 123.479 197.387 124.871ZM200.867 140.006V138.267C200.867 138.093 201.04 137.919 201.127 137.919C201.301 137.919 201.562 138.006 201.649 138.18C201.997 138.876 201.91 139.224 200.867 140.006Z" fill="white"/>
</svg>
